:SAMPLES-PER-SECOND 30
:FULLY-SPECIFIED
:DEGREES
338
root  1.60086 34.1132 17.8428 4.93106 32.5406 0.14605
LeftUpLeg  -7.58606 8.02835 1.70678
LeftLeg  13.0543 2.98294 0.490603
LeftFoot  -2.01781 -0.000866544 -0.100877
LeftToes  -16.4171 1.92152e-006 4.03786e-008
Spine  1.58531 2.08862 -1.59331
Spine1  2.79523 4.28981 -3.05668
RightShoulder  0.0420794 5.57196 5.30066
RightArm  -36.4308 4.69483 70.169
RightForeArm  35.5422 46.4131 10.6903
RightHand  2.28773 -10.4053 -24.3521
LeftShoulder1  0.0449353 0.961481 -9.811
LeftArm  -22.3467 15.1658 -66.2347
LeftForeArm  25.4489 -15.8416 -2.86317
LeftHand  0.241808 5.36845 4.73592
HEad  -4.91229 -24.981 1.67484
RightUpLeg  -9.9601 -9.48555 -7.05873
RightLeg  8.12045 -4.70158 -0.362401
RightFoot  8.16857 0.0704574 -0.6091
RightToes  -36.2576 -0.17554 -0.27652
339
root  1.61751 34.1144 17.8668 4.84835 32.7347 0.0662695
LeftUpLeg  -7.55368 7.94031 1.78293
LeftLeg  13.1181 2.9125 0.482317
LeftFoot  -2.08749 -0.00147456 -0.0999752
LeftToes  -16.3538 1.92152e-006 4.03786e-008
Spine  1.56776 2.03809 -1.56883
Spine1  2.76056 4.18895 -3.00447
RightShoulder  0.0425816 5.31878 5.35344
RightArm  -34.6791 4.33476 70.7528
RightForeArm  34.5429 47.2985 11.0336
RightHand  2.37852 -10.8141 -24.3568
LeftShoulder1  0.0454072 0.893622 -9.80941
LeftArm  -22.1242 15.1858 -66.0286
LeftForeArm  25.3392 -15.8721 -2.86902
LeftHand  0.238742 5.42985 4.69625
HEad  -4.79139 -24.9639 1.80632
RightUpLeg  -9.89239 -9.49488 -7.01772
RightLeg  8.27059 -4.86578 -0.387872
RightFoot  8.04883 0.0709006 -0.621212
RightToes  -35.9769 -0.175795 -0.276879
340
root  1.637 34.115 17.8909 4.75622 32.8941 0.000970791
LeftUpLeg  -7.50084 7.91005 1.85203
LeftLeg  13.2034 2.79191 0.466563
LeftFoot  -2.17257 -0.0020914 -0.0994703
LeftToes  -16.3513 1.92152e-006 4.03786e-008
Spine  1.5352 1.97351 -1.55481
Spine1  2.6989 4.0587 -2.97249
RightShoulder  0.0431237 5.07662 5.40809
RightArm  -33.282 4.10254 71.2179
RightForeArm  33.644 47.9731 11.3033
RightHand  2.41412 -11.083 -24.1221
LeftShoulder1  0.0458288 0.819806 -9.83255
LeftArm  -22.0286 15.2489 -65.783
LeftForeArm  25.2971 -15.7998 -2.85527
LeftHand  0.238506 5.38825 4.72993
HEad  -4.42114 -24.8726 1.75264
RightUpLeg  -9.78847 -9.53402 -6.99354
RightLeg  8.36687 -4.9656 -0.404215
RightFoot  7.97347 0.0710215 -0.627855
RightToes  -35.9909 -0.176052 -0.277242
341
root  1.6565 34.1151 17.9109 4.67545 32.9526 -0.0349297
LeftUpLeg  -7.41216 7.90177 1.89332
LeftLeg  13.2443 2.72895 0.458012
LeftFoot  -2.25174 -0.00266025 -0.100064
LeftToes  -16.306 1.92152e-006 4.03786e-008
Spine  1.49009 1.90841 -1.55745
Spine1  2.6138 3.92716 -2.97438
RightShoulder  0.0436307 4.95158 5.36235
RightArm  -32.4085 3.97842 71.6771
RightForeArm  32.9574 48.3179 11.4441
RightHand  2.41293 -11.1964 -23.8684
LeftShoulder1  0.0462121 0.745993 -9.8603
LeftArm  -21.9903 15.3822 -65.5098
LeftForeArm  25.3008 -15.7074 -2.83771
LeftHand  0.237459 5.39029 4.73932
HEad  -3.9708 -24.6851 1.59571
RightUpLeg  -9.68246 -9.54147 -6.99363
RightLeg  8.40469 -5.00229 -0.410521
RightFoot  7.91513 0.0707051 -0.627263
RightToes  -35.9574 -0.176313 -0.27761
342
root  1.6742 34.1138 17.9212 4.59531 32.8835 -0.0648314
LeftUpLeg  -7.32314 7.91375 1.91376
LeftLeg  13.2855 2.76645 0.46636
LeftFoot  -2.29758 -0.00308861 -0.103012
LeftToes  -16.4476 1.92152e-006 4.03786e-008
Spine  1.46193 1.86226 -1.55758
Spine1  2.56186 3.83446 -2.97956
RightShoulder  0.0441406 4.86765 5.25647
RightArm  -31.899 4.07609 72.0963
RightForeArm  32.6277 48.3063 11.4396
RightHand  2.40356 -11.2615 -23.6408
LeftShoulder1  0.0465693 0.644591 -9.8906
LeftArm  -21.9345 15.5394 -65.2612
LeftForeArm  25.3806 -15.6127 -2.81971
LeftHand  0.237774 5.34733 4.78277
HEad  -3.73156 -24.4821 1.48589
RightUpLeg  -9.6017 -9.4728 -6.99982
RightLeg  8.39833 -4.98817 -0.408806
RightFoot  7.9391 0.070415 -0.626659
RightToes  -36.1876 -0.176575 -0.277982
343
root  1.68949 34.1106 17.9252 4.51693 32.7239 -0.0899974
LeftUpLeg  -7.21475 7.93292 1.92035
LeftLeg  13.2838 2.90704 0.490031
LeftFoot  -2.37271 -0.00313449 -0.111894
LeftToes  -16.3898 1.92152e-006 4.03786e-008
Spine  1.44444 1.84047 -1.55652
Spine1  2.5298 3.79148 -2.97419
RightShoulder  0.044679 4.81616 5.16579
RightArm  -31.5419 4.28193 72.3376
RightForeArm  32.4323 48.0307 11.3274
RightHand  2.3827 -11.2544 -23.4529
LeftShoulder1  0.0469125 0.513555 -9.89718
LeftArm  -21.8372 15.7064 -65.0821
LeftForeArm  25.3879 -15.5246 -2.803
LeftHand  0.234384 5.41391 4.68383
HEad  -3.59484 -24.2566 1.37298
RightUpLeg  -9.53729 -9.38054 -7.00576
RightLeg  8.37438 -4.92062 -0.401203
RightFoot  7.92989 0.0694777 -0.615603
RightToes  -36.0875 -0.176839 -0.278356
344
root  1.70136 34.1082 17.9221 4.43043 32.4788 -0.106925
LeftUpLeg  -7.1028 8.00391 1.92372
LeftLeg  13.3048 3.06332 0.517581
LeftFoot  -2.44734 -0.00308808 -0.12202
LeftToes  -16.2761 1.92152e-006 4.03786e-008
Spine  1.43051 1.84324 -1.55508
Spine1  2.50226 3.79943 -2.96515
RightShoulder  0.0452482 4.80546 5.11773
RightArm  -31.1721 4.52164 72.3825
RightForeArm  32.248 47.5662 11.1411
RightHand  2.37689 -11.2739 -23.3564
LeftShoulder1  0.0472537 0.400624 -9.8865
LeftArm  -21.6829 15.8534 -64.9729
LeftForeArm  25.3463 -15.4099 -2.78128
LeftHand  0.231729 5.49838 4.63413
HEad  -3.4054 -23.9927 1.23384
RightUpLeg  -9.5233 -9.25112 -7.0156
RightLeg  8.40575 -4.8056 -0.394472
RightFoot  7.94177 0.0682512 -0.599679
RightToes  -36.1022 -0.177103 -0.278732
345
root  1.70565 34.1067 17.9106 4.34095 32.2873 -0.110501
LeftUpLeg  -7.01792 7.96805 1.91165
LeftLeg  13.3482 3.27019 0.555144
LeftFoot  -2.4964 -0.00293218 -0.133475
LeftToes  -16.2524 1.92152e-006 4.03786e-008
Spine  1.43646 1.83488 -1.55408
Spine1  2.51299 3.78662 -2.9659
RightShoulder  0.0458465 4.82601 5.11351
RightArm  -30.8977 4.77829 72.2862
RightForeArm  32.1191 47.0069 10.9212
RightHand  2.34803 -11.1944 -23.239
LeftShoulder1  0.0476051 0.281623 -9.84996
LeftArm  -21.5708 15.9337 -64.9141
LeftForeArm  25.3813 -15.2789 -2.75647
LeftHand  0.231902 5.4847 4.66405
HEad  -3.30998 -23.7936 1.16694
RightUpLeg  -9.50768 -9.1995 -7.03177
RightLeg  8.43793 -4.66384 -0.385467
RightFoot  7.96186 0.0668651 -0.580919
RightToes  -36.1475 -0.177367 -0.279109
346
root  1.70486 34.106 17.8929 4.2714 32.1064 -0.113068
LeftUpLeg  -6.96222 8.00497 1.89762
LeftLeg  13.3738 3.40709 0.579982
LeftFoot  -2.53007 -0.00296193 -0.141492
LeftToes  -16.1739 1.92152e-006 4.03786e-008
Spine  1.43404 1.82273 -1.55432
Spine1  2.52173 3.76507 -2.973
RightShoulder  0.046475 4.80936 5.10533
RightArm  -30.6603 5.02388 72.1611
RightForeArm  32.0474 46.4419 10.7039
RightHand  2.33587 -11.1347 -23.2432
LeftShoulder1  0.0479933 0.17597 -9.7983
LeftArm  -21.4856 15.9912 -64.886
LeftForeArm  25.3438 -15.1942 -2.74047
LeftHand  0.229882 5.51436 4.58962
HEad  -3.26878 -23.6435 1.12431
RightUpLeg  -9.51112 -9.15077 -7.04519
RightLeg  8.44648 -4.51947 -0.374208
RightFoot  7.99745 0.0655786 -0.563375
RightToes  -36.133 -0.177631 -0.279485
